<svg width="24" height="24" viewBox="0 0 24 24" fill="none" xmlns="http://www.w3.org/2000/svg">
<path d="M7 9.5L12 14.5L17 9.5H7Z" fill="#181818"/>
<path d="M1 21L1 3H-1L-1 21H1ZM3 1H21V-1H3V1ZM23 3V21H25V3H23ZM21 23H3V25H21V23ZM23 21C23 22.1046 22.1046 23 21 23V25C23.2091 25 25 23.2091 25 21H23ZM21 1C22.1046 1 23 1.89543 23 3H25C25 0.790861 23.2091 -1 21 -1V1ZM1 3C1 1.89543 1.89543 1 3 1V-1C0.790861 -1 -1 0.790861 -1 3H1ZM-1 21C-1 23.2091 0.790861 25 3 25V23C1.89543 23 1 22.1046 1 21H-1Z" fill="white"/>
</svg>
