<svg width="157" height="108" viewBox="0 0 157 108" fill="none" xmlns="http://www.w3.org/2000/svg">
<path d="M17.2042 41.68H34.1642V44.08H19.8442V54.16H33.1642V56.56H19.8442V70H17.2042V41.68ZM39.5508 39.76H41.9508V70H39.5508V39.76ZM63.5202 62.24C63.5202 63.1467 63.5202 63.96 63.5202 64.68C63.5468 65.4 63.5735 66.0667 63.6002 66.68C63.6268 67.2933 63.6535 67.8667 63.6802 68.4C63.7335 68.9333 63.8002 69.4667 63.8802 70H61.6402C61.4802 69.0933 61.4002 68.0933 61.4002 67H61.3202C60.6268 68.2 59.7602 69.08 58.7202 69.64C57.7068 70.2 56.4135 70.48 54.8402 70.48C54.0402 70.48 53.2535 70.3733 52.4802 70.16C51.7068 69.9733 51.0135 69.6667 50.4002 69.24C49.7868 68.7867 49.2802 68.2133 48.8802 67.52C48.5068 66.8267 48.3202 65.9867 48.3202 65C48.3202 63.5867 48.6802 62.4667 49.4002 61.64C50.1202 60.8133 51.0002 60.2 52.0402 59.8C53.1068 59.3733 54.2268 59.1067 55.4002 59C56.6002 58.8667 57.6535 58.8 58.5602 58.8H61.3602V57.68C61.3602 56.08 60.8668 54.9333 59.8802 54.24C58.8935 53.5467 57.6535 53.2 56.1602 53.2C54.0268 53.2 52.1468 53.8933 50.5202 55.28L49.1202 53.64C50.0002 52.7867 51.0935 52.1467 52.4002 51.72C53.7068 51.2667 54.9602 51.04 56.1602 51.04C58.4002 51.04 60.1868 51.5733 61.5202 52.64C62.8535 53.68 63.5202 55.3733 63.5202 57.72V62.24ZM58.7202 60.72C57.7068 60.72 56.7202 60.7867 55.7602 60.92C54.8268 61.0533 53.9735 61.28 53.2002 61.6C52.4535 61.92 51.8535 62.3467 51.4002 62.88C50.9468 63.4133 50.7202 64.08 50.7202 64.88C50.7202 65.44 50.8402 65.9467 51.0802 66.4C51.3468 66.8267 51.6802 67.1867 52.0802 67.48C52.4802 67.7467 52.9202 67.96 53.4002 68.12C53.9068 68.2533 54.4135 68.32 54.9202 68.32C56.2002 68.32 57.2535 68.1333 58.0802 67.76C58.9068 67.3867 59.5602 66.9067 60.0402 66.32C60.5468 65.7067 60.8935 65.0267 61.0802 64.28C61.2668 63.5067 61.3602 62.7333 61.3602 61.96V60.72H58.7202ZM70.3423 65.28C70.849 66.2667 71.5957 67.0267 72.5823 67.56C73.569 68.0667 74.609 68.32 75.7023 68.32C76.209 68.32 76.7157 68.24 77.2223 68.08C77.729 67.92 78.1823 67.6933 78.5823 67.4C78.9823 67.1067 79.3023 66.76 79.5423 66.36C79.809 65.9333 79.9423 65.4533 79.9423 64.92C79.9423 64.0667 79.6623 63.4267 79.1023 63C78.569 62.5733 77.9023 62.24 77.1023 62C76.3023 61.76 75.4223 61.56 74.4623 61.4C73.5023 61.2133 72.6223 60.9467 71.8223 60.6C71.0223 60.2267 70.3423 59.72 69.7823 59.08C69.249 58.44 68.9823 57.5333 68.9823 56.36C68.9823 55.4533 69.169 54.6667 69.5423 54C69.9157 53.3333 70.3957 52.7867 70.9823 52.36C71.5957 51.9067 72.2757 51.5733 73.0223 51.36C73.769 51.1467 74.529 51.04 75.3023 51.04C76.8223 51.04 78.129 51.32 79.2223 51.88C80.3423 52.44 81.209 53.32 81.8223 54.52L79.6623 55.8C79.209 54.9467 78.6357 54.3067 77.9423 53.88C77.2757 53.4267 76.3957 53.2 75.3023 53.2C74.8757 53.2 74.4223 53.2667 73.9423 53.4C73.489 53.5333 73.0757 53.72 72.7023 53.96C72.329 54.2 72.009 54.5067 71.7423 54.88C71.5023 55.2533 71.3823 55.68 71.3823 56.16C71.3823 56.9867 71.649 57.6 72.1823 58C72.7423 58.4 73.4223 58.72 74.2223 58.96C75.0223 59.1733 75.9023 59.36 76.8623 59.52C77.8223 59.68 78.7023 59.9467 79.5023 60.32C80.3023 60.6667 80.969 61.1867 81.5023 61.88C82.0623 62.5467 82.3423 63.5067 82.3423 64.76C82.3423 65.72 82.1557 66.56 81.7823 67.28C81.4357 67.9733 80.9423 68.56 80.3023 69.04C79.689 69.52 78.9823 69.88 78.1823 70.12C77.3823 70.36 76.5423 70.48 75.6623 70.48C74.0623 70.48 72.5957 70.1733 71.2623 69.56C69.9557 68.9467 68.9423 68 68.2223 66.72L70.3423 65.28ZM87.7336 39.76H90.1336V54.76H90.2136C90.6936 53.7467 91.4936 52.88 92.6136 52.16C93.7336 51.4133 95.0403 51.04 96.5336 51.04C97.9736 51.04 99.1469 51.2667 100.054 51.72C100.96 52.1733 101.667 52.7733 102.174 53.52C102.707 54.24 103.067 55.08 103.254 56.04C103.467 57 103.574 57.9867 103.574 59V70H101.174V59.12C101.174 58.3733 101.107 57.6533 100.974 56.96C100.84 56.24 100.6 55.6 100.254 55.04C99.9336 54.48 99.4669 54.04 98.8536 53.72C98.2669 53.3733 97.4936 53.2 96.5336 53.2C95.6536 53.2 94.8136 53.36 94.0136 53.68C93.2403 53.9733 92.5603 54.44 91.9736 55.08C91.4136 55.6933 90.9603 56.48 90.6136 57.44C90.2936 58.3733 90.1336 59.48 90.1336 60.76V70H87.7336V39.76ZM115.56 75.72C115.107 76.92 114.48 77.8667 113.68 78.56C112.88 79.2533 111.813 79.6 110.48 79.6C110.08 79.6 109.68 79.56 109.28 79.48C108.88 79.4267 108.493 79.3467 108.12 79.24L108.36 77C108.707 77.1067 109.053 77.2 109.4 77.28C109.773 77.3867 110.147 77.44 110.52 77.44C110.947 77.44 111.32 77.3467 111.64 77.16C111.987 76.9733 112.28 76.7333 112.52 76.44C112.76 76.1467 112.96 75.8133 113.12 75.44C113.307 75.0933 113.467 74.7333 113.6 74.36L115.28 70.08L107.76 51.52H110.44L116.56 67.08L122.52 51.52H125.08L115.56 75.72Z" fill="white" fill-opacity="0.7"/>
<g clip-path="url(#clip0)">
<path d="M141.424 40.375H133.851L136.647 32.7695C136.909 31.8789 136.155 31 135.124 31H125.674C124.887 31 124.218 31.5215 124.113 32.2187L122.013 46.2812C121.888 47.125 122.623 47.875 123.574 47.875H131.364L128.339 59.2715C128.103 60.1621 128.864 61 129.868 61C130.419 61 130.944 60.7422 131.233 60.2969L142.783 42.4844C143.393 41.5527 142.639 40.375 141.424 40.375Z" fill="#8F00FF"/>
</g>
<path d="M156.5 54C156.5 68.7012 147.893 82.064 133.87 91.7727C119.848 101.48 100.45 107.5 79 107.5C57.5497 107.5 38.1519 101.48 24.1303 91.7727C10.1067 82.064 1.5 68.7012 1.5 54C1.5 39.2988 10.1067 25.936 24.1303 16.2273C38.1519 6.52006 57.5497 0.5 79 0.5C100.45 0.5 119.848 6.52006 133.87 16.2273C147.893 25.936 156.5 39.2988 156.5 54Z" stroke="white" stroke-opacity="0.7"/>
<defs>
<clipPath id="clip0">
<rect x="122" y="31" width="21" height="30" fill="white"/>
</clipPath>
</defs>
</svg>
