<svg width="143" height="49" viewBox="0 0 143 49" fill="none" xmlns="http://www.w3.org/2000/svg">
<path d="M17.2042 10.68H34.1642V13.08H19.8442V23.16H33.1642V25.56H19.8442V39H17.2042V10.68ZM39.5508 8.76H41.9508V39H39.5508V8.76ZM63.5202 31.24C63.5202 32.1467 63.5202 32.96 63.5202 33.68C63.5468 34.4 63.5735 35.0667 63.6002 35.68C63.6268 36.2933 63.6535 36.8667 63.6802 37.4C63.7335 37.9333 63.8002 38.4667 63.8802 39H61.6402C61.4802 38.0933 61.4002 37.0933 61.4002 36H61.3202C60.6268 37.2 59.7602 38.08 58.7202 38.64C57.7068 39.2 56.4135 39.48 54.8402 39.48C54.0402 39.48 53.2535 39.3733 52.4802 39.16C51.7068 38.9733 51.0135 38.6667 50.4002 38.24C49.7868 37.7867 49.2802 37.2133 48.8802 36.52C48.5068 35.8267 48.3202 34.9867 48.3202 34C48.3202 32.5867 48.6802 31.4667 49.4002 30.64C50.1202 29.8133 51.0002 29.2 52.0402 28.8C53.1068 28.3733 54.2268 28.1067 55.4002 28C56.6002 27.8667 57.6535 27.8 58.5602 27.8H61.3602V26.68C61.3602 25.08 60.8668 23.9333 59.8802 23.24C58.8935 22.5467 57.6535 22.2 56.1602 22.2C54.0268 22.2 52.1468 22.8933 50.5202 24.28L49.1202 22.64C50.0002 21.7867 51.0935 21.1467 52.4002 20.72C53.7068 20.2667 54.9602 20.04 56.1602 20.04C58.4002 20.04 60.1868 20.5733 61.5202 21.64C62.8535 22.68 63.5202 24.3733 63.5202 26.72V31.24ZM58.7202 29.72C57.7068 29.72 56.7202 29.7867 55.7602 29.92C54.8268 30.0533 53.9735 30.28 53.2002 30.6C52.4535 30.92 51.8535 31.3467 51.4002 31.88C50.9468 32.4133 50.7202 33.08 50.7202 33.88C50.7202 34.44 50.8402 34.9467 51.0802 35.4C51.3468 35.8267 51.6802 36.1867 52.0802 36.48C52.4802 36.7467 52.9202 36.96 53.4002 37.12C53.9068 37.2533 54.4135 37.32 54.9202 37.32C56.2002 37.32 57.2535 37.1333 58.0802 36.76C58.9068 36.3867 59.5602 35.9067 60.0402 35.32C60.5468 34.7067 60.8935 34.0267 61.0802 33.28C61.2668 32.5067 61.3602 31.7333 61.3602 30.96V29.72H58.7202ZM70.3423 34.28C70.849 35.2667 71.5957 36.0267 72.5823 36.56C73.569 37.0667 74.609 37.32 75.7023 37.32C76.209 37.32 76.7157 37.24 77.2223 37.08C77.729 36.92 78.1823 36.6933 78.5823 36.4C78.9823 36.1067 79.3023 35.76 79.5423 35.36C79.809 34.9333 79.9423 34.4533 79.9423 33.92C79.9423 33.0667 79.6623 32.4267 79.1023 32C78.569 31.5733 77.9023 31.24 77.1023 31C76.3023 30.76 75.4223 30.56 74.4623 30.4C73.5023 30.2133 72.6223 29.9467 71.8223 29.6C71.0223 29.2267 70.3423 28.72 69.7823 28.08C69.249 27.44 68.9823 26.5333 68.9823 25.36C68.9823 24.4533 69.169 23.6667 69.5423 23C69.9157 22.3333 70.3957 21.7867 70.9823 21.36C71.5957 20.9067 72.2757 20.5733 73.0223 20.36C73.769 20.1467 74.529 20.04 75.3023 20.04C76.8223 20.04 78.129 20.32 79.2223 20.88C80.3423 21.44 81.209 22.32 81.8223 23.52L79.6623 24.8C79.209 23.9467 78.6357 23.3067 77.9423 22.88C77.2757 22.4267 76.3957 22.2 75.3023 22.2C74.8757 22.2 74.4223 22.2667 73.9423 22.4C73.489 22.5333 73.0757 22.72 72.7023 22.96C72.329 23.2 72.009 23.5067 71.7423 23.88C71.5023 24.2533 71.3823 24.68 71.3823 25.16C71.3823 25.9867 71.649 26.6 72.1823 27C72.7423 27.4 73.4223 27.72 74.2223 27.96C75.0223 28.1733 75.9023 28.36 76.8623 28.52C77.8223 28.68 78.7023 28.9467 79.5023 29.32C80.3023 29.6667 80.969 30.1867 81.5023 30.88C82.0623 31.5467 82.3423 32.5067 82.3423 33.76C82.3423 34.72 82.1557 35.56 81.7823 36.28C81.4357 36.9733 80.9423 37.56 80.3023 38.04C79.689 38.52 78.9823 38.88 78.1823 39.12C77.3823 39.36 76.5423 39.48 75.6623 39.48C74.0623 39.48 72.5957 39.1733 71.2623 38.56C69.9557 37.9467 68.9423 37 68.2223 35.72L70.3423 34.28ZM87.7336 8.76H90.1336V23.76H90.2136C90.6936 22.7467 91.4936 21.88 92.6136 21.16C93.7336 20.4133 95.0403 20.04 96.5336 20.04C97.9736 20.04 99.1469 20.2667 100.054 20.72C100.96 21.1733 101.667 21.7733 102.174 22.52C102.707 23.24 103.067 24.08 103.254 25.04C103.467 26 103.574 26.9867 103.574 28V39H101.174V28.12C101.174 27.3733 101.107 26.6533 100.974 25.96C100.84 25.24 100.6 24.6 100.254 24.04C99.9336 23.48 99.4669 23.04 98.8536 22.72C98.2669 22.3733 97.4936 22.2 96.5336 22.2C95.6536 22.2 94.8136 22.36 94.0136 22.68C93.2403 22.9733 92.5603 23.44 91.9736 24.08C91.4136 24.6933 90.9603 25.48 90.6136 26.44C90.2936 27.3733 90.1336 28.48 90.1336 29.76V39H87.7336V8.76ZM115.56 44.72C115.107 45.92 114.48 46.8667 113.68 47.56C112.88 48.2533 111.813 48.6 110.48 48.6C110.08 48.6 109.68 48.56 109.28 48.48C108.88 48.4267 108.493 48.3467 108.12 48.24L108.36 46C108.707 46.1067 109.053 46.2 109.4 46.28C109.773 46.3867 110.147 46.44 110.52 46.44C110.947 46.44 111.32 46.3467 111.64 46.16C111.987 45.9733 112.28 45.7333 112.52 45.44C112.76 45.1467 112.96 44.8133 113.12 44.44C113.307 44.0933 113.467 43.7333 113.6 43.36L115.28 39.08L107.76 20.52H110.44L116.56 36.08L122.52 20.52H125.08L115.56 44.72Z" fill="white" fill-opacity="0.7"/>
<g clip-path="url(#clip0)">
<path d="M141.424 9.375H133.851L136.647 1.76953C136.909 0.878906 136.155 0 135.124 0H125.674C124.887 0 124.218 0.521484 124.113 1.21875L122.013 15.2812C121.888 16.125 122.623 16.875 123.574 16.875H131.364L128.339 28.2715C128.103 29.1621 128.864 30 129.868 30C130.419 30 130.944 29.7422 131.233 29.2969L142.783 11.4844C143.393 10.5527 142.639 9.375 141.424 9.375Z" fill="white" fill-opacity="0.7"/>
</g>
<defs>
<clipPath id="clip0">
<rect x="122" width="21" height="30" fill="white"/>
</clipPath>
</defs>
</svg>
