<svg width="282" height="157" viewBox="0 0 282 157" fill="none" xmlns="http://www.w3.org/2000/svg">
<path d="M50.2979 66.8721V81.9668H65.8457V85.4502H50.2979V104H46.6445V63.3887H69.499V66.8721H50.2979ZM72.6947 104V63.3887H76.1781V104H72.6947ZM99.9343 104L98.0085 101.111C97.2155 102.15 96.2243 102.99 95.0349 103.632C93.8454 104.255 92.5427 104.566 91.1267 104.566H90.2487C89.0782 104.566 87.9737 104.349 86.9353 103.915C85.8969 103.462 84.9906 102.848 84.2165 102.074C83.4424 101.3 82.8288 100.394 82.3757 99.3555C81.9415 98.3171 81.7243 97.2126 81.7243 96.042V95.7588C81.7243 94.5882 81.9415 93.4837 82.3757 92.4453C82.8288 91.4069 83.4424 90.5007 84.2165 89.7266C84.9906 88.9525 85.8969 88.3483 86.9353 87.9141C87.9737 87.4609 89.0782 87.2344 90.2487 87.2344H97.612V82.7598C97.612 82.0612 97.4799 81.4098 97.2155 80.8057C96.9512 80.1826 96.5925 79.6445 96.1394 79.1914C95.6862 78.7383 95.1482 78.3796 94.5251 78.1152C93.9209 77.8509 93.2696 77.7188 92.571 77.7188H90.532C89.8334 77.7188 89.1726 77.8509 88.5495 78.1152C87.9454 78.3796 87.4167 78.7383 86.9636 79.1914C86.5105 79.6445 86.1517 80.1826 85.8874 80.8057C85.6231 81.4098 85.4909 82.0612 85.4909 82.7598V83.8076L82.0075 83.2412V82.958C82.0075 81.7874 82.2247 80.6829 82.6589 79.6445C83.112 78.6061 83.7256 77.6999 84.4997 76.9258C85.2738 76.1517 86.1801 75.5475 87.2185 75.1133C88.2569 74.6602 89.3614 74.4336 90.532 74.4336H92.571C93.7416 74.4336 94.8461 74.6602 95.8845 75.1133C96.9229 75.5475 97.8292 76.1517 98.6032 76.9258C99.3773 77.6999 99.9815 78.6061 100.416 79.6445C100.869 80.6829 101.095 81.7874 101.095 82.958V104H99.9343ZM97.612 89.9531H90.2487C89.5502 89.9531 88.8894 90.0853 88.2663 90.3496C87.6622 90.6139 87.1335 90.9821 86.6804 91.4541C86.2273 91.9072 85.8685 92.4453 85.6042 93.0684C85.3399 93.6725 85.2077 94.3239 85.2077 95.0225V96.2402C85.2077 96.9388 85.3399 97.5996 85.6042 98.2227C85.8685 98.8268 86.2273 99.3555 86.6804 99.8086C87.1335 100.262 87.6622 100.62 88.2663 100.885C88.8894 101.149 89.5502 101.281 90.2487 101.281H92.571C93.2696 101.281 93.9209 101.149 94.5251 100.885C95.1482 100.62 95.6862 100.262 96.1394 99.8086C96.5925 99.3555 96.9512 98.8268 97.2155 98.2227C97.4799 97.5996 97.612 96.9388 97.612 96.2402V89.9531ZM125.39 96.6367C125.39 97.8073 125.154 98.8835 124.682 99.8652C124.21 100.828 123.568 101.659 122.756 102.357C121.944 103.056 121 103.604 119.924 104C118.867 104.378 117.753 104.566 116.582 104.566H114.26C113.089 104.566 111.966 104.349 110.89 103.915C109.832 103.462 108.898 102.848 108.086 102.074C107.293 101.3 106.651 100.394 106.16 99.3555C105.688 98.3171 105.452 97.2126 105.452 96.042V94.8809L108.936 94.3145V96.2402C108.936 96.9388 109.077 97.5996 109.36 98.2227C109.663 98.8268 110.059 99.3555 110.55 99.8086C111.041 100.262 111.607 100.62 112.249 100.885C112.891 101.149 113.561 101.281 114.26 101.281H116.582C117.281 101.281 117.951 101.177 118.593 100.97C119.235 100.762 119.801 100.469 120.292 100.092C120.802 99.6953 121.198 99.2233 121.482 98.6758C121.784 98.1283 121.935 97.5052 121.935 96.8066C121.935 95.7682 121.708 94.9186 121.255 94.2578C120.802 93.597 120.198 93.0495 119.442 92.6152C118.706 92.1621 117.857 91.7939 116.894 91.5107C115.95 91.2087 114.977 90.916 113.977 90.6328C112.976 90.3307 111.994 89.9909 111.031 89.6133C110.087 89.2357 109.238 88.7448 108.483 88.1406C107.746 87.5176 107.151 86.7435 106.698 85.8184C106.245 84.8932 106.019 83.7415 106.019 82.3633C106.019 81.1927 106.245 80.126 106.698 79.1631C107.151 78.1813 107.765 77.3411 108.539 76.6426C109.313 75.944 110.21 75.4059 111.23 75.0283C112.268 74.6318 113.372 74.4336 114.543 74.4336H116.582C117.753 74.4336 118.857 74.6602 119.896 75.1133C120.934 75.5475 121.84 76.1517 122.614 76.9258C123.388 77.6999 123.993 78.6061 124.427 79.6445C124.88 80.6829 125.107 81.7874 125.107 82.958V83.0713L121.623 83.6377V82.7598C121.623 82.0612 121.491 81.4098 121.227 80.8057C120.962 80.1826 120.604 79.6445 120.15 79.1914C119.697 78.7383 119.159 78.3796 118.536 78.1152C117.932 77.8509 117.281 77.7188 116.582 77.7188H114.543C113.844 77.7188 113.184 77.8226 112.561 78.0303C111.956 78.238 111.428 78.54 110.975 78.9365C110.522 79.3141 110.163 79.7767 109.899 80.3242C109.634 80.8717 109.502 81.4948 109.502 82.1934C109.502 83.194 109.729 84.0153 110.182 84.6572C110.635 85.2803 111.23 85.8089 111.966 86.2432C112.721 86.6774 113.571 87.0456 114.515 87.3477C115.478 87.6309 116.45 87.9329 117.432 88.2539C118.432 88.556 119.405 88.9053 120.349 89.3018C121.312 89.6982 122.161 90.208 122.898 90.8311C123.653 91.4541 124.257 92.2376 124.71 93.1816C125.163 94.1068 125.39 95.2585 125.39 96.6367ZM145.351 104V82.7598C145.351 82.0612 145.219 81.4098 144.955 80.8057C144.69 80.1826 144.331 79.6445 143.878 79.1914C143.425 78.7383 142.887 78.3796 142.264 78.1152C141.66 77.8509 141.009 77.7188 140.31 77.7188H137.988C137.289 77.7188 136.628 77.8509 136.005 78.1152C135.401 78.3796 134.872 78.7383 134.419 79.1914C133.966 79.6445 133.608 80.1826 133.343 80.8057C133.079 81.4098 132.947 82.0612 132.947 82.7598V104H129.463V63.3887H132.947V77.4355C133.74 76.4915 134.693 75.7552 135.807 75.2266C136.921 74.6979 138.129 74.4336 139.432 74.4336H140.31C141.481 74.4336 142.585 74.6602 143.623 75.1133C144.662 75.5475 145.568 76.1517 146.342 76.9258C147.116 77.6999 147.72 78.6061 148.155 79.6445C148.608 80.6829 148.834 81.7874 148.834 82.958V104H145.351Z" fill="black"/>
<path d="M183.914 76.724L166.572 120.456H161.352L166.572 107.348L154.566 76.724H159.786L169.24 101.548L178.462 76.724H183.914Z" fill="white"/>
<path d="M122.555 27.1759L95.6699 18.5052L87.7913 52.8241L114.677 61.4949L122.555 27.1759Z" fill="#DCEAD7" stroke="#393939" stroke-miterlimit="10" stroke-linecap="round" stroke-linejoin="round"/>
<path d="M118.909 30.2783L98.016 23.5402L93.298 44.0916L114.191 50.8298L118.909 30.2783Z" fill="#DCEAD7" stroke="#393939" stroke-miterlimit="10" stroke-linecap="round" stroke-linejoin="round"/>
<g opacity="0.2">
<path d="M109.219 28.6437L112.689 27.9615L116.948 59.6168L96.7847 63.58L95.2759 58.6694" fill="#393939"/>
<path d="M109.219 28.6437L112.689 27.9615L116.948 59.6168L96.7847 63.58L95.2759 58.6694" stroke="#393939" stroke-miterlimit="10" stroke-linecap="round" stroke-linejoin="round"/>
</g>
<path d="M110.096 23.7968L82 29.3192L86.6791 64.1017L114.775 58.5793L110.096 23.7968Z" fill="#DCEAD7" stroke="#393939" stroke-miterlimit="10" stroke-linecap="round" stroke-linejoin="round"/>
<path d="M91.5021 36.9021L93.7866 53.8841" stroke="white" stroke-miterlimit="10" stroke-linejoin="round"/>
<path d="M103.071 34.6282L105.356 51.6103" stroke="white" stroke-miterlimit="10" stroke-linejoin="round"/>
<path d="M88.0578 49.1298L109.213 44.9717" stroke="white" stroke-miterlimit="10" stroke-linecap="round" stroke-linejoin="round"/>
<path d="M108.993 40.8147C106.514 41.302 103.346 36.6742 103.346 36.6742C103.346 36.6742 102.382 42.1141 98.25 42.9263C94.1182 43.7384 91.7774 38.9482 91.7774 38.9482C91.7774 38.9482 89.9865 44.5505 87.5074 45.0378" stroke="white" stroke-miterlimit="10" stroke-linecap="round" stroke-linejoin="round"/>
<path d="M107.341 28.5386L85.8559 32.7616L88.8835 55.2679L110.369 51.0449L107.341 28.5386Z" stroke="#393939" stroke-miterlimit="10" stroke-linecap="round" stroke-linejoin="round"/>
<line x1="47" y1="118.5" x2="146.05" y2="118.5" stroke="black" stroke-width="3"/>
<path d="M79 155.5C121.793 155.5 156.5 121.035 156.5 78.5C156.5 35.9648 121.793 1.5 79 1.5C36.2073 1.5 1.5 35.9648 1.5 78.5C1.5 121.035 36.2073 155.5 79 155.5Z" stroke="url(#paint0_radial)" stroke-width="3" stroke-miterlimit="1" stroke-linejoin="bevel" style="mix-blend-mode:hard-light"/>
<rect x="139" y="106" width="16" height="7.33333" fill="#DCEAD7"/>
<rect x="142.556" y="111.867" width="7.11111" height="5.13333" fill="#DCEAD7"/>
<path d="M156 104C156 107.314 153.933 110 152 110C150.067 110 149 107.314 149 104C149 100.686 150.567 98 152.5 98C154.433 98 156 100.686 156 104Z" fill="#DCEAD7"/>
<rect x="151" y="45" width="10" height="23" fill="#DCEAD7"/>
<defs>
<radialGradient id="paint0_radial" cx="0" cy="0" r="1" gradientUnits="userSpaceOnUse" gradientTransform="translate(-4.60002 74.2531) rotate(-27.7037) scale(450.662 448.983)">
<stop offset="0.349922"/>
<stop offset="0.353692" stop-color="white" stop-opacity="0"/>
<stop offset="1" stop-color="white" stop-opacity="0"/>
</radialGradient>
</defs>
</svg>
